<mxfile host="app.diagrams.net" agent="Mozilla/5.0 (Windows NT 10.0; Win64; x64) AppleWebKit/537.36 (KHTML, like Gecko) Chrome/134.0.0.0 Safari/537.36 Edg/134.0.0.0" version="26.1.1">
  <diagram name="Page-1" id="rJ3Su6eRKoFjzBdF0YPi">
    <mxGraphModel dx="1666" dy="789" grid="1" gridSize="10" guides="1" tooltips="1" connect="1" arrows="1" fold="1" page="1" pageScale="1" pageWidth="850" pageHeight="1100" math="0" shadow="0">
      <root>
        <mxCell id="0" />
        <mxCell id="1" parent="0" />
        <mxCell id="fJJ5jNnLarmT3tVw8iJC-2" value="webFetcher.py" style="ellipse;whiteSpace=wrap;html=1;" vertex="1" parent="1">
          <mxGeometry x="240" y="80" width="120" height="80" as="geometry" />
        </mxCell>
        <mxCell id="fJJ5jNnLarmT3tVw8iJC-3" value="contentParser.py" style="ellipse;whiteSpace=wrap;html=1;" vertex="1" parent="1">
          <mxGeometry x="240" y="190" width="120" height="80" as="geometry" />
        </mxCell>
        <mxCell id="fJJ5jNnLarmT3tVw8iJC-4" value="contentComparator.py" style="ellipse;whiteSpace=wrap;html=1;" vertex="1" parent="1">
          <mxGeometry x="160" y="300" width="120" height="80" as="geometry" />
        </mxCell>
        <mxCell id="fJJ5jNnLarmT3tVw8iJC-5" value="fieldComparator.py" style="ellipse;whiteSpace=wrap;html=1;" vertex="1" parent="1">
          <mxGeometry x="320" y="300" width="120" height="80" as="geometry" />
        </mxCell>
        <mxCell id="fJJ5jNnLarmT3tVw8iJC-6" value="" style="endArrow=classic;html=1;rounded=0;exitX=0.5;exitY=1;exitDx=0;exitDy=0;entryX=0.5;entryY=0;entryDx=0;entryDy=0;" edge="1" parent="1" source="fJJ5jNnLarmT3tVw8iJC-2" target="fJJ5jNnLarmT3tVw8iJC-3">
          <mxGeometry width="50" height="50" relative="1" as="geometry">
            <mxPoint x="400" y="340" as="sourcePoint" />
            <mxPoint x="450" y="290" as="targetPoint" />
          </mxGeometry>
        </mxCell>
        <mxCell id="fJJ5jNnLarmT3tVw8iJC-7" value="" style="endArrow=classic;html=1;rounded=0;exitX=1;exitY=1;exitDx=0;exitDy=0;entryX=0.5;entryY=0;entryDx=0;entryDy=0;" edge="1" parent="1" source="fJJ5jNnLarmT3tVw8iJC-3" target="fJJ5jNnLarmT3tVw8iJC-5">
          <mxGeometry width="50" height="50" relative="1" as="geometry">
            <mxPoint x="310" y="170" as="sourcePoint" />
            <mxPoint x="310" y="210" as="targetPoint" />
          </mxGeometry>
        </mxCell>
        <mxCell id="fJJ5jNnLarmT3tVw8iJC-8" value="" style="endArrow=classic;html=1;rounded=0;exitX=0;exitY=1;exitDx=0;exitDy=0;entryX=0.5;entryY=0;entryDx=0;entryDy=0;" edge="1" parent="1" source="fJJ5jNnLarmT3tVw8iJC-3" target="fJJ5jNnLarmT3tVw8iJC-4">
          <mxGeometry width="50" height="50" relative="1" as="geometry">
            <mxPoint x="320" y="180" as="sourcePoint" />
            <mxPoint x="320" y="220" as="targetPoint" />
          </mxGeometry>
        </mxCell>
        <mxCell id="fJJ5jNnLarmT3tVw8iJC-9" value="previous_element_content.txt" style="rounded=1;whiteSpace=wrap;html=1;" vertex="1" parent="1">
          <mxGeometry x="300" y="410" width="160" height="40" as="geometry" />
        </mxCell>
        <mxCell id="fJJ5jNnLarmT3tVw8iJC-10" value="previous.content.txt" style="rounded=1;whiteSpace=wrap;html=1;" vertex="1" parent="1">
          <mxGeometry x="160" y="410" width="120" height="40" as="geometry" />
        </mxCell>
        <mxCell id="fJJ5jNnLarmT3tVw8iJC-11" value="" style="endArrow=classic;html=1;rounded=0;exitX=0.5;exitY=1;exitDx=0;exitDy=0;entryX=0.5;entryY=0;entryDx=0;entryDy=0;" edge="1" parent="1" source="fJJ5jNnLarmT3tVw8iJC-5" target="fJJ5jNnLarmT3tVw8iJC-9">
          <mxGeometry width="50" height="50" relative="1" as="geometry">
            <mxPoint x="400" y="340" as="sourcePoint" />
            <mxPoint x="450" y="290" as="targetPoint" />
          </mxGeometry>
        </mxCell>
        <mxCell id="fJJ5jNnLarmT3tVw8iJC-12" value="" style="endArrow=classic;html=1;rounded=0;exitX=0.5;exitY=1;exitDx=0;exitDy=0;entryX=0.5;entryY=0;entryDx=0;entryDy=0;" edge="1" parent="1" source="fJJ5jNnLarmT3tVw8iJC-4" target="fJJ5jNnLarmT3tVw8iJC-10">
          <mxGeometry width="50" height="50" relative="1" as="geometry">
            <mxPoint x="390" y="410" as="sourcePoint" />
            <mxPoint x="390" y="450" as="targetPoint" />
          </mxGeometry>
        </mxCell>
        <mxCell id="fJJ5jNnLarmT3tVw8iJC-13" value="main.py" style="rounded=1;whiteSpace=wrap;html=1;" vertex="1" parent="1">
          <mxGeometry x="160" y="480" width="120" height="60" as="geometry" />
        </mxCell>
        <mxCell id="fJJ5jNnLarmT3tVw8iJC-14" value="" style="endArrow=classic;html=1;rounded=0;exitX=0.5;exitY=1;exitDx=0;exitDy=0;entryX=0.5;entryY=0;entryDx=0;entryDy=0;" edge="1" parent="1" source="fJJ5jNnLarmT3tVw8iJC-10" target="fJJ5jNnLarmT3tVw8iJC-13">
          <mxGeometry width="50" height="50" relative="1" as="geometry">
            <mxPoint x="230" y="390" as="sourcePoint" />
            <mxPoint x="230" y="420" as="targetPoint" />
          </mxGeometry>
        </mxCell>
        <mxCell id="fJJ5jNnLarmT3tVw8iJC-15" value="" style="endArrow=classic;html=1;rounded=0;exitX=0.5;exitY=1;exitDx=0;exitDy=0;entryX=1;entryY=0.5;entryDx=0;entryDy=0;edgeStyle=orthogonalEdgeStyle;curved=1;" edge="1" parent="1" source="fJJ5jNnLarmT3tVw8iJC-9" target="fJJ5jNnLarmT3tVw8iJC-13">
          <mxGeometry width="50" height="50" relative="1" as="geometry">
            <mxPoint x="390" y="460" as="sourcePoint" />
            <mxPoint x="290" y="520" as="targetPoint" />
          </mxGeometry>
        </mxCell>
        <mxCell id="fJJ5jNnLarmT3tVw8iJC-16" value="email notification" style="rounded=1;whiteSpace=wrap;html=1;" vertex="1" parent="1">
          <mxGeometry x="190" y="650" width="120" height="30" as="geometry" />
        </mxCell>
        <mxCell id="fJJ5jNnLarmT3tVw8iJC-17" value="" style="endArrow=classic;html=1;rounded=0;exitX=0.5;exitY=1;exitDx=0;exitDy=0;entryX=0.25;entryY=0;entryDx=0;entryDy=0;" edge="1" parent="1" source="fJJ5jNnLarmT3tVw8iJC-13" target="fJJ5jNnLarmT3tVw8iJC-16">
          <mxGeometry width="50" height="50" relative="1" as="geometry">
            <mxPoint x="230" y="460" as="sourcePoint" />
            <mxPoint x="230" y="490" as="targetPoint" />
          </mxGeometry>
        </mxCell>
        <mxCell id="fJJ5jNnLarmT3tVw8iJC-19" value="" style="endArrow=classic;html=1;rounded=0;exitX=0.75;exitY=1;exitDx=0;exitDy=0;edgeStyle=orthogonalEdgeStyle;curved=1;entryX=0;entryY=0.5;entryDx=0;entryDy=0;" edge="1" parent="1" source="fJJ5jNnLarmT3tVw8iJC-10" target="fJJ5jNnLarmT3tVw8iJC-23">
          <mxGeometry width="50" height="50" relative="1" as="geometry">
            <mxPoint x="400" y="440" as="sourcePoint" />
            <mxPoint x="340" y="570" as="targetPoint" />
            <Array as="points">
              <mxPoint x="250" y="470" />
              <mxPoint x="330" y="470" />
              <mxPoint x="330" y="520" />
            </Array>
          </mxGeometry>
        </mxCell>
        <mxCell id="fJJ5jNnLarmT3tVw8iJC-20" value="" style="endArrow=classic;html=1;rounded=0;exitX=0.75;exitY=1;exitDx=0;exitDy=0;entryX=0.5;entryY=0;entryDx=0;entryDy=0;" edge="1" parent="1" source="fJJ5jNnLarmT3tVw8iJC-9" target="fJJ5jNnLarmT3tVw8iJC-23">
          <mxGeometry width="50" height="50" relative="1" as="geometry">
            <mxPoint x="400" y="440" as="sourcePoint" />
            <mxPoint x="420" y="510" as="targetPoint" />
          </mxGeometry>
        </mxCell>
        <mxCell id="fJJ5jNnLarmT3tVw8iJC-23" value="index.html" style="rounded=0;whiteSpace=wrap;html=1;" vertex="1" parent="1">
          <mxGeometry x="390" y="500" width="120" height="40" as="geometry" />
        </mxCell>
        <mxCell id="fJJ5jNnLarmT3tVw8iJC-26" value="style.css" style="rounded=0;whiteSpace=wrap;html=1;" vertex="1" parent="1">
          <mxGeometry x="390" y="570" width="120" height="40" as="geometry" />
        </mxCell>
        <mxCell id="fJJ5jNnLarmT3tVw8iJC-27" value="" style="endArrow=classic;html=1;rounded=0;exitX=0.5;exitY=1;exitDx=0;exitDy=0;entryX=0.5;entryY=0;entryDx=0;entryDy=0;" edge="1" parent="1" source="fJJ5jNnLarmT3tVw8iJC-23" target="fJJ5jNnLarmT3tVw8iJC-26">
          <mxGeometry width="50" height="50" relative="1" as="geometry">
            <mxPoint x="230" y="550" as="sourcePoint" />
            <mxPoint x="230" y="580" as="targetPoint" />
          </mxGeometry>
        </mxCell>
        <mxCell id="fJJ5jNnLarmT3tVw8iJC-28" value="app.py" style="rounded=1;whiteSpace=wrap;html=1;" vertex="1" parent="1">
          <mxGeometry x="240" y="560" width="120" height="60" as="geometry" />
        </mxCell>
        <mxCell id="fJJ5jNnLarmT3tVw8iJC-29" value="" style="endArrow=classic;html=1;rounded=0;exitX=0;exitY=0.5;exitDx=0;exitDy=0;entryX=1;entryY=0.5;entryDx=0;entryDy=0;" edge="1" parent="1" source="fJJ5jNnLarmT3tVw8iJC-26" target="fJJ5jNnLarmT3tVw8iJC-28">
          <mxGeometry width="50" height="50" relative="1" as="geometry">
            <mxPoint x="450" y="550" as="sourcePoint" />
            <mxPoint x="450" y="580" as="targetPoint" />
          </mxGeometry>
        </mxCell>
        <mxCell id="fJJ5jNnLarmT3tVw8iJC-30" value="" style="endArrow=classic;html=1;rounded=0;exitX=0.5;exitY=1;exitDx=0;exitDy=0;entryX=0.75;entryY=0;entryDx=0;entryDy=0;" edge="1" parent="1" source="fJJ5jNnLarmT3tVw8iJC-28" target="fJJ5jNnLarmT3tVw8iJC-16">
          <mxGeometry width="50" height="50" relative="1" as="geometry">
            <mxPoint x="400" y="600" as="sourcePoint" />
            <mxPoint x="370" y="600" as="targetPoint" />
          </mxGeometry>
        </mxCell>
      </root>
    </mxGraphModel>
  </diagram>
</mxfile>
